<svg width="32" height="32" viewBox="0 0 32 32" fill="#fc4e00" xmlns="http://www.w3.org/2000/svg">
<path d="M18.5 13.25C21.3994 13.25 23.7499 15.6006 23.75 18.5C23.75 21.3995 21.3995 23.75 18.5 23.75C15.6006 23.7499 13.25 21.3994 13.25 18.5C13.2501 15.6007 15.6007 13.2501 18.5 13.25Z"/>
<path d="M9.70801 0.475587C11.9871 0.0222788 14.3502 0.255335 16.4971 1.14453C18.6436 2.03372 20.4785 3.53986 21.7695 5.47168C22.2415 6.17809 22.633 6.93061 22.9395 7.71387C23.259 8.53091 23.3824 8.8635 23.2754 9.36524C23.2379 9.54113 23.1342 9.7627 22.9902 9.97363C22.8462 10.1846 22.6775 10.3618 22.5273 10.4609C22.1026 10.7411 21.6293 10.75 20.4775 10.75H17.5C13.7724 10.7502 10.7502 13.7724 10.75 17.5V20.4775C10.75 21.6293 10.741 22.1026 10.4609 22.5273C10.3618 22.6775 10.1846 22.8462 9.97363 22.9902C9.7627 23.1342 9.54113 23.2379 9.36524 23.2754C8.86349 23.3824 8.53091 23.259 7.71387 22.9395C6.93061 22.633 6.17809 22.2415 5.47168 21.7695C3.53986 20.4785 2.03372 18.6436 1.14453 16.4971C0.255336 14.3502 0.0222787 11.9871 0.475587 9.70801C0.928991 7.4288 2.0482 5.33462 3.69141 3.69141C5.33462 2.0482 7.4288 0.92899 9.70801 0.475587Z"/>
<path d="M4.05078 20.9873C4.2339 21.1493 4.42103 21.3071 4.61426 21.458C4.84678 21.6396 5.08654 21.8128 5.33301 21.9775C4.88172 21.676 4.45425 21.3441 4.05078 20.9873Z"/>
<path d="M20.9473 4.00488C21.3196 4.42159 21.6646 4.86471 21.9775 5.33301C21.8128 5.08654 21.6396 4.84678 21.458 4.61426C21.2946 4.40498 21.1236 4.20228 20.9473 4.00488Z"/>
</svg>
